<svg xmlns="http://www.w3.org/2000/svg" viewBox="0 0 61 60"><defs><style>.a{fill:#508d4e;}.b{fill:#1c5319;}.c{fill:#80af81;stroke:#fff;stroke-miterlimit:10;stroke-width:0.5px;}</style></defs><polygon class="a" points="61 30 61 60 23.5 60 61 30"/><polygon class="b" points="0 30 0 0 37.5 0 0 30"/><path class="c" d="M165.9157,189.2439H153.6579a.9631.9631,0,0,0-.9632.9631v17.1538a.9631.9631,0,0,1-.9631.9632H140.41a.9631.9631,0,0,1-.9631-.9632V158.8872a.9631.9631,0,0,1,.9631-.9631h11.3218a.9631.9631,0,0,1,.9631.9631v16.5777a.9631.9631,0,0,0,.9632.9631h12.2578a.9631.9631,0,0,0,.9631-.9631V158.8872a.9631.9631,0,0,1,.9631-.9631h11.3219a.9631.9631,0,0,1,.9631.9631v48.4736a.9631.9631,0,0,1-.9631.9632H167.8419a.9631.9631,0,0,1-.9631-.9632V190.207A.9631.9631,0,0,0,165.9157,189.2439Z" transform="translate(-129 -153)"/></svg>